<?xml version="1.0" encoding="UTF-8"?>
<svg id="Layer_1" data-name="Layer 1" xmlns="http://www.w3.org/2000/svg" viewBox="0 0 205 205">
  <defs>
    <style>
      .cls-1 {
        opacity: .9;
      }

      .cls-2 {
        fill: #fff;
        fill-rule: evenodd;
      }
    </style>
  </defs>
  <g class="cls-1">
    <path class="cls-2" d="M56.5,58.31c-15.45,5.01-27.56,17.42-32.4,33.24-3.79,12.41-6.18,33.04,4.14,60.69.1.29,10.27,27.59,35.19,42.34,12.26,7.3,27.61,6.96,39.07-.78l.45-.29c.45-.34.9-.63,1.3-.92.65-.54,1.4-.78,2.14-.78s1.45.24,2.09.68c.6.49,1.2.92,1.69,1.22l.1.05c11.46,7.79,26.81,8.08,39.07.78,22.33-13.24,32.75-36.35,34.79-41.36h-1.45c-11.86,0-23.08-4.53-31.45-12.7-8.42-8.22-13.11-19.13-13.11-30.76-.05-20.49,14.65-38.01,34.54-42.48-4.78-3.99-10.32-7.06-16.3-9-26.47-8.57-45.41,9.54-47.45,11.63l-.1.1c-1.3,1.27-3.44,1.27-4.73,0l-.1-.1c-2.14-2-21.03-20.1-47.5-11.53Z"/>
    <path class="cls-2" d="M112.5,14.57c-7.13,6.64-10.57,16.48-9.92,27.89,12.31.6,22.88-2.65,30-9.33,7.13-6.64,10.62-16.48,9.92-27.89-12.31-.6-22.88,2.65-30,9.33Z"/>
  </g>
</svg>