<?xml version="1.0" encoding="UTF-8"?>
<svg id="Layer_1" data-name="Layer 1" xmlns="http://www.w3.org/2000/svg" viewBox="0 0 205 205">
  <defs>
    <style>
      .cls-1 {
        fill: #fff;
      }
    </style>
  </defs>
  <path class="cls-1" d="M18.09,16.39c-4.47,4.17-6.79,9.73-6.79,15.86v140.58c0,6.02,2.21,11.58,6.56,15.63l91.05-89.63L18.09,16.39Z"/>
  <path class="cls-1" d="M181.82,83.18l-32.82-17.83-34,33.47,8.82,7.99,32.12,29.18,25.88-14.13c7.41-4.05,11.88-11.23,11.88-19.34,0-8.1-4.47-15.28-11.88-19.34Z"/>
  <path class="cls-1" d="M145.85,62.23L49.27,9.78c-7.64-4.17-16.58-4.05-23.99.35-1.53.93-3.06,1.97-4.24,3.13l90.81,82.45,34-33.47Z"/>
  <path class="cls-1" d="M111.85,101.92L20.81,191.55c1.29,1.27,2.82,2.43,4.47,3.36,3.76,2.31,8,3.36,12.23,3.36,4,0,8.12-.93,11.76-3.01l103.52-56.16-32.12-29.18-8.82-7.99Z"/>
</svg>